# xmcd
#
# Track frame offsets:
#	150
#	22826
#	43957
#	69660
#	84145
#	110875
#	127780
#	140190
#	170515
#	185274
#	207750
#	231108
#	262799
#	277652
#
# Disc length: 3861 seconds
# Revision: 0
# Processed by: cddbd v1.5.2PL0 Copyright (c) Steve Scherf et al.
# Submitted via: dBpowerAMP V12.0
#
DISCID=b90f130e
DTITLE=The Rough Guide To Psychedelic Brazil (World Music Network RGNET1290CD) - CD2 Jupiter Maça 1996 A Sétima Efervescência
DYEAR=2013
DGENRE=Gauchó
TTITLE0=Um Lugar Do Caralho
TTITLE1=A Tortas E As Cucas
TTITLE2=Querida Superhist X Mr Frog
TTITLE3=Pictures And Paintings
TTITLE4=Eu E Minha Ex
TTITLE5=Walter Victor
TTITLE6=As Outras Que Me Querem
TTITLE7=Sociedade Humanoides Fantasticas
TTITLE8=O Novo Namorado
TTITLE9=Miss Lexotan 6 Mg Garota
TTITLE10=The Freaking Alice
TTITLE11=Essencia Interior
TTITLE12=Canção Para Dormir
TTITLE13=A 7 Enfervescencia Intergalatica
EXTD=
EXTT0=
EXTT1=
EXTT2=
EXTT3=
EXTT4=
EXTT5=
EXTT6=
EXTT7=
EXTT8=
EXTT9=
EXTT10=
EXTT11=
EXTT12=
EXTT13=
PLAYORDER=
